<?xml version="1.0" encoding="iso-8859-1"?>
<!-- Generator: Adobe Illustrator 16.0.0, SVG Export Plug-In . SVG Version: 6.00 Build 0)  -->
<!DOCTYPE svg PUBLIC "-//W3C//DTD SVG 1.1//EN" "http://www.w3.org/Graphics/SVG/1.1/DTD/svg11.dtd">
<svg version="1.1" id="Capa_1" xmlns="http://www.w3.org/2000/svg" xmlns:xlink="http://www.w3.org/1999/xlink" x="0px" y="0px"
	 width="94.203px" height="94.202px" viewBox="0 0 94.203 94.202" style="enable-background:new 0 0 94.203 94.202;"
	 xml:space="preserve">
<g>
	<g>
		<path d="M43.783,46.121c11.723-0.222,19.466-11.235,19.43-27.666C63.195,6.641,55.556-0.273,42.853,0.008
			c-12.232,0.28-18.98,7.047-18.859,18.908C24.179,35.988,31.711,46.342,43.783,46.121z"/>
		<rect x="68.075" y="68.478" width="16.796" height="3.559"/>
		<path d="M89.525,57.481H70.142c-0.869-1.062-1.977-1.849-3.203-2.326L56.435,50.4l-4.303-3.897l-8.53,7.789l-8.339-7.859
			l-4.868,4.105l-10.132,4.663c-1.5,0.616-2.83,1.679-3.725,3.177L3.863,79.575L1.21,83.813h38.925v6.922
			c0,1.915,1.552,3.467,3.466,3.467h45.923c1.914,0,3.467-1.553,3.467-3.467V60.948C92.993,59.034,91.439,57.481,89.525,57.481z
			 M89.588,90.734H43.666V60.948h45.923V90.734z"/>
		<rect x="48.96" y="67.65" width="12.908" height="16.549"/>
		<rect x="68.075" y="76.836" width="10.26" height="3.557"/>
	</g>
</g>

</svg>
